<?xml version="1.0" encoding="UTF-8"?><svg id="Layer_1" xmlns="http://www.w3.org/2000/svg" xmlns:xlink="http://www.w3.org/1999/xlink" viewBox="0 0 180 170"><defs><style>.cls-1{fill:url(#linear-gradient-2);}.cls-1,.cls-2,.cls-3,.cls-4,.cls-5{stroke:#000;stroke-miterlimit:10;stroke-width:.25px;}.cls-2{fill:url(#linear-gradient-3);}.cls-3{fill:#4ba558;font-family:RetroDelight, 'Retro Delight';font-size:17px;}.cls-4{fill:url(#linear-gradient);}.cls-5{fill:#fff;}</style><linearGradient id="linear-gradient" x1="1.26" y1="70.5" x2="178.62" y2="70.5" gradientUnits="userSpaceOnUse"><stop offset="0" stop-color="#b7c58b"/><stop offset="1" stop-color="#4ba558"/></linearGradient><linearGradient id="linear-gradient-2" x1="52.5" y1="65.48" x2="129.02" y2="65.48" gradientUnits="userSpaceOnUse"><stop offset="0" stop-color="#4ba558"/><stop offset="1" stop-color="#b7c58b"/></linearGradient><linearGradient id="linear-gradient-3" x1="50.37" y1="95.58" x2="131.2" y2="95.58" gradientUnits="userSpaceOnUse"><stop offset="0" stop-color="#f4f0cb"/><stop offset="1" stop-color="#ded29e"/></linearGradient></defs><text class="cls-3" transform="translate(15.74 169.11)"><tspan x="0" y="0">VILD MAD</tspan></text><path class="cls-4" d="m131.22,137.22h-.02c-2.32.62-3.7.78-3.7.78,0,0-40.17,4.48-73,0-1.38-.19-2.73-.41-4.04-.68h-.04C-10.91,125.07,2.5,35,2.5,35c27-8,53,2,53,2C67.5,10,89.5,1,89.5,1c24,8,36,36,36,36,26-11,52-2,52-2,8.48,81.38-33.35,98.8-46.28,102.22Z"/><path class="cls-1" d="m67.5,87c-24-18-12-50-12-50,23,1,35,15,35,15,13-13,35-15,35-15,0,0,13,35-11,51,0,0-26.95,14.04-47-1Z"/><path class="cls-2" d="m131.2,137.22c-2.32.62-3.7.78-3.7.78,0,0-40.17,4.48-73,0-1.38-.19-2.73-.41-4.04-.68,14.46.85,16.04-9.94,16.04-9.94v-27.13c-15-1.01-16-12.07-16-12.07-1-8.18,4.26-12.53,6.32-13.72.42-.23.68-.35.68-.35,1-17.11,19-15.07,19-15.07,4-5.04,9-7.04,13.41-7.62h.05c.44-.06.86-.09,1.28-.13,13.26-1.29,16.26,8.75,16.26,8.75,12.59-.04,17.94,4.53,20.26,8.74.08.13.15.27.22.41,1.37,2.69,1.52,4.92,1.52,4.92,3,15.08-12,20.11-12,20.11v34.17c2.44,7.7,8.98,8.99,13.7,8.83Z"/><path class="cls-5" d="m171.97,53.17s1.39,49.02-32.93,74.6c0,0,41.23-18.49,32.93-74.6Z"/></svg>