<?xml version="1.0" encoding="UTF-8"?><svg id="Layer_1" xmlns="http://www.w3.org/2000/svg" viewBox="0 0 314 314"><defs><style>.cls-1,.cls-2{fill:none;}.cls-3{fill:#f4f0cb;}.cls-4,.cls-5{fill:#ffab00;}.cls-6{fill:#a21a00;}.cls-7{fill:#b96800;}.cls-8{fill:#8b1a00;}.cls-5,.cls-2{stroke:#000;stroke-miterlimit:10;}</style></defs><circle class="cls-4" cx="157" cy="157" r="156.5"/><circle class="cls-6" cx="157" cy="157" r="140.5"/><path class="cls-4" d="m156.5,28.5c-70.69,0-128,57.31-128,128s57.31,128,128,128,128-57.31,128-128S227.19,28.5,156.5,28.5Zm-26,237c-5.52,0-10-4.48-10-10s4.48-10,10-10,10,4.48,10,10-4.48,10-10,10Z"/><circle class="cls-5" cx="130.5" cy="255.5" r="5"/><path class="cls-3" d="m143.5,150.5s2,21,8,32c0,0,11,4,17-5,0,0,3-5-12-31,0,0,6-3,11,4,0,0,5-1,4-7,0,0-2-6-11-7,0,0-13-3-26,8,0,0-7,6-4,13,0,0,3,5,7,2,0,0-1-8,6-9Z"/><path class="cls-3" d="m101.5,70.5s-8,13-9,23c0,0,3,6,13,4,0,0,3.54-1.13,5-24,0,0,6-1,5,7,0,0,4.38,1.34,6.29-2.89,0,0,.71-5.11-4.04-9.13,0,0-6.24-6.98-19.97-6.04,0,0-6.28,1.06-7.28,6.06,0,0-1,4,3,5,0,0,2-5,8-3Z"/><path class="cls-3" d="m221.5,83.5s9,15,19,21c0,0,9.5-.5,11-10,0,0-2-8-22-19,0,0,1-6,9-2,0,0,4-3,0-8,0,0-5-3-12,0,0,0-11,5-15,17,0,0-2,6,1,11,0,0,5,4,8,0,0,0-4-6,1-10Z"/><path class="cls-3" d="m257.5,181.5s-10,3-18,12c0,0-1.5,7.5,7,11,7.01-5.32,13-11,17-17,0,0,3,4,0,8,0,0,2,3,6,1,0,0,2-1,2-6,0,0,0-10-10-16,0,0-6.89-4.02-11-1,0,0-3,2-2,6,0,0,7-3,9,2Z"/><path class="cls-3" d="m205.5,242.5s-10,2-19,8c0,0-1.5,7.5,4,11,8-3,13.54-6.29,19-11,0,0,2,5-2,8,0,0,3,3,7,1,0,0,2.5-1.5,2-6,0,0,0-9-5-15,0,0-3-4-8-4,0,0-5,0-5,5,0,0,6-1,7,3Z"/><path class="cls-3" d="m88.78,230.13s2.72,7.37,8.72,12.37c0,0,5.5.5,7-5-3-5-6.27-9.33-11-12,0,0,3-2,6,0,0,0,2-2,.35-4.99,0,0-.83-1.43-4.66-1.19,0,0-7.66.49-11.91,8.19,0,0-2.84,5.3-.39,8.2,0,0,1.6,1.79,4.6.79,0,0-2-5,1.28-6.37Z"/><path d="m47,123.5c-5.8,0-10.5,4.48-10.5,10s4.7,10,10.5,10,10.5-4.48,10.5-10-4.7-10-10.5-10Zm-.5,15c-2.76,0-5-2.24-5-5s2.24-5,5-5,5,2.24,5,5-2.24,5-5,5Z"/><circle class="cls-2" cx="46.5" cy="133.5" r="5"/><circle class="cls-1" cx="46.5" cy="133.5" r="5"/><path d="m69,172.5c-5.8,0-10.5,4.7-10.5,10.5s4.7,10.5,10.5,10.5,10.5-4.7,10.5-10.5-4.7-10.5-10.5-10.5Zm-.5,15c-2.76,0-5-2.24-5-5s2.24-5,5-5,5,2.24,5,5-2.24,5-5,5Z"/><circle class="cls-2" cx="68.5" cy="182.5" r="5"/><circle class="cls-1" cx="68.5" cy="182.5" r="5"/><path d="m134,176.5c-5.8,0-10.5,4.7-10.5,10.5s4.7,10.5,10.5,10.5,10.5-4.7,10.5-10.5-4.7-10.5-10.5-10.5Zm-.5,16c-2.76,0-5-2.24-5-5s2.24-5,5-5,5,2.24,5,5-2.24,5-5,5Z"/><circle class="cls-2" cx="133.5" cy="187.5" r="5"/><circle class="cls-1" cx="133.5" cy="187.5" r="5"/><path d="m130.5,245.5c-5.52,0-10,4.48-10,10s4.48,10,10,10,10-4.48,10-10-4.48-10-10-10Zm0,15c-2.76,0-5-2.24-5-5s2.24-5,5-5,5,2.24,5,5-2.24,5-5,5Z"/><circle class="cls-2" cx="130.5" cy="255.5" r="5"/><circle class="cls-1" cx="130.5" cy="255.5" r="5"/><path d="m225.5,210.5c-5.52,0-10,4.48-10,10s4.48,10,10,10,10-4.48,10-10-4.48-10-10-10Zm0,15c-2.76,0-5-2.24-5-5s2.24-5,5-5,5,2.24,5,5-2.24,5-5,5Z"/><circle class="cls-2" cx="225.5" cy="220.5" r="5"/><circle class="cls-1" cx="225.5" cy="220.5" r="5"/><path d="m192.5,140.5c-5.52,0-10,4.48-10,10s4.48,10,10,10,10-4.48,10-10-4.48-10-10-10Zm0,15c-2.76,0-5-2.24-5-5s2.24-5,5-5,5,2.24,5,5-2.24,5-5,5Z"/><circle class="cls-2" cx="192.5" cy="150.5" r="5"/><circle class="cls-1" cx="192.5" cy="150.5" r="5"/><path d="m148,105.5c-5.8,0-10.5,4.48-10.5,10s4.7,10,10.5,10,10.5-4.48,10.5-10-4.7-10-10.5-10Zm0,15c-2.49,0-4.5-2.24-4.5-5s2.01-5,4.5-5,4.5,2.24,4.5,5-2.01,5-4.5,5Z"/><ellipse class="cls-2" cx="148" cy="115.5" rx="4.5" ry="5"/><ellipse class="cls-1" cx="148" cy="115.5" rx="4.5" ry="5"/><path d="m255,113.5c-5.8,0-10.5,4.7-10.5,10.5s4.7,10.5,10.5,10.5,10.5-4.7,10.5-10.5-4.7-10.5-10.5-10.5Zm-.5,16c-2.76,0-5-2.24-5-5s2.24-5,5-5,5,2.24,5,5-2.24,5-5,5Z"/><circle class="cls-2" cx="254.5" cy="124.5" r="5"/><circle class="cls-1" cx="254.5" cy="124.5" r="5"/><path d="m139.5,39.5c-5.52,0-10,4.48-10,10s4.48,10,10,10,10-4.48,10-10-4.48-10-10-10Zm0,15c-2.76,0-5-2.24-5-5s2.24-5,5-5,5,2.24,5,5-2.24,5-5,5Z"/><circle class="cls-2" cx="139.5" cy="49.5" r="5"/><circle class="cls-1" cx="139.5" cy="49.5" r="5"/><ellipse class="cls-7" cx="122.5" cy="109" rx="10" ry="9.5"/><ellipse class="cls-7" cx="98.5" cy="200" rx="10" ry="9.5"/><ellipse class="cls-7" cx="193.5" cy="193" rx="10" ry="9.5"/><ellipse class="cls-7" cx="198.5" cy="55" rx="10" ry="9.5"/><circle class="cls-7" cx="204.5" cy="117.5" r="13"/><circle class="cls-7" cx="248" cy="221" r="4.5"/><circle class="cls-7" cx="163.5" cy="267.5" r="5"/><circle class="cls-7" cx="64.5" cy="211.5" r="5"/><circle class="cls-7" cx="43.5" cy="167.5" r="5"/><circle class="cls-7" cx="69" cy="94" r="4.5"/><circle class="cls-7" cx="265" cy="153" r="4.5"/><circle class="cls-6" cx="174" cy="83" r="23.5"/><circle class="cls-6" cx="229" cy="155" r="20.5"/><circle class="cls-6" cx="85" cy="138" r="23.5"/><ellipse class="cls-6" cx="159.5" cy="224" rx="27" ry="26.5"/><circle class="cls-8" cx="181.5" cy="80.5" r="5.5"/><circle class="cls-8" cx="168" cy="72" r="5"/><circle class="cls-8" cx="163" cy="90" r="6"/><circle class="cls-8" cx="158" cy="78" r="3"/><circle class="cls-8" cx="182" cy="68" r="2"/><circle class="cls-8" cx="189.5" cy="89.5" r="2.5"/><circle class="cls-8" cx="179" cy="97" r="4"/><circle class="cls-8" cx="235.5" cy="152.5" r="4.5"/><circle class="cls-8" cx="219" cy="161" r="5"/><circle class="cls-8" cx="215.5" cy="151.5" r="2.5"/><circle class="cls-8" cx="224" cy="146" r="4"/><circle class="cls-8" cx="235.5" cy="141.5" r="2.5"/><circle class="cls-8" cx="233.5" cy="167.5" r="3.5"/><circle class="cls-8" cx="242.5" cy="160.5" r="2.5"/><circle class="cls-8" cx="153.5" cy="211.5" r="5.5"/><circle class="cls-8" cx="168" cy="221" r="6"/><circle class="cls-8" cx="147" cy="232" r="7"/><ellipse class="cls-8" cx="165.5" cy="240.5" rx="4.5" ry="4.5"/><circle class="cls-8" cx="178.5" cy="230.5" r="3.5"/><circle class="cls-8" cx="142" cy="219" r="3"/><circle class="cls-8" cx="168.5" cy="206.5" r="3.5"/><circle class="cls-8" cx="90" cy="152" r="4"/><circle class="cls-8" cx="91.5" cy="135.5" r="5.5"/><circle class="cls-8" cx="74" cy="145" r="6"/><circle class="cls-8" cx="79.5" cy="127.5" r="4.5"/><circle class="cls-8" cx="92" cy="122" r="3"/><circle class="cls-8" cx="69" cy="134" r="3"/><circle class="cls-8" cx="100" cy="144" r="3"/></svg>